# xmcd
#
# Track frame offsets: 
#        150
#        18057
#        31965
#        50447
#        68113
#        84930
#        103685
#        119946
#        131579
#        147285
#
# Disc length: 2199 seconds
#
# Revision: 7
# Processed by: cddbd v1.5.2PL0 Copyright (c) Steve Scherf et al.
# Submitted via: ExactAudioCopyFreeDBPlugin 1.0
#
DISCID=8508950a
DTITLE=X - X
DYEAR=1980
DGENRE=X
TTITLE0=X
TTITLE1=X
TTITLE2=X
TTITLE3=X
TTITLE4=X
TTITLE5=X
TTITLE6=X
TTITLE7=X
TTITLE8=X
TTITLE9=X
EXTD=
EXTT0=
EXTT1=
EXTT2=
EXTT3=
EXTT4=
EXTT5=
EXTT6=
EXTT7=
EXTT8=
EXTT9=
PLAYORDER=
